<svg xmlns="http://www.w3.org/2000/svg" width="980" height="572" viewBox="0 0 980 572">
<rect width="100%" height="100%" fill="white"/>
<text x="24" y="34" font-family="Arial" font-size="22" font-weight="700">Attack Success Rate Mean</text>
<text x="24" y="93" font-family="Arial" font-size="14">ablation_no_denied_actions</text>
<rect x="250" y="70" width="438.08" height="24" rx="3" fill="#2563eb"/>
<text x="696.08" y="88" font-family="Arial" font-size="13">0.654</text>
<text x="24" y="135" font-family="Arial" font-size="14">ablation_no_quorum</text>
<rect x="250" y="112" width="49.82" height="24" rx="3" fill="#2563eb"/>
<text x="307.82" y="130" font-family="Arial" font-size="13">0.074</text>
<text x="24" y="177" font-family="Arial" font-size="14">ablation_no_topic_scope</text>
<rect x="250" y="154" width="1.72" height="24" rx="3" fill="#2563eb"/>
<text x="259.72" y="172" font-family="Arial" font-size="13">0.003</text>
<text x="24" y="219" font-family="Arial" font-size="14">ambient_memory</text>
<rect x="250" y="196" width="356.90" height="24" rx="3" fill="#2563eb"/>
<text x="614.90" y="214" font-family="Arial" font-size="13">0.533</text>
<text x="24" y="261" font-family="Arial" font-size="14">counterfactual_memory</text>
<rect x="250" y="238" width="130.99" height="24" rx="3" fill="#2563eb"/>
<text x="388.99" y="256" font-family="Arial" font-size="13">0.196</text>
<text x="24" y="303" font-family="Arial" font-size="14">intent_capsules</text>
<rect x="250" y="280" width="0.00" height="24" rx="3" fill="#2563eb"/>
<text x="258.00" y="298" font-family="Arial" font-size="13">0.000</text>
<text x="24" y="345" font-family="Arial" font-size="14">keyword_filter</text>
<rect x="250" y="322" width="331.13" height="24" rx="3" fill="#2563eb"/>
<text x="589.13" y="340" font-family="Arial" font-size="13">0.494</text>
<text x="24" y="387" font-family="Arial" font-size="14">output_moderation</text>
<rect x="250" y="364" width="331.13" height="24" rx="3" fill="#2563eb"/>
<text x="589.13" y="382" font-family="Arial" font-size="13">0.494</text>
<text x="24" y="429" font-family="Arial" font-size="14">provenance_only</text>
<rect x="250" y="406" width="111.67" height="24" rx="3" fill="#2563eb"/>
<text x="369.67" y="424" font-family="Arial" font-size="13">0.167</text>
<text x="24" y="471" font-family="Arial" font-size="14">quarantine_only</text>
<rect x="250" y="448" width="331.13" height="24" rx="3" fill="#2563eb"/>
<text x="589.13" y="466" font-family="Arial" font-size="13">0.494</text>
<text x="24" y="513" font-family="Arial" font-size="14">trust_score_retrieval</text>
<rect x="250" y="490" width="111.67" height="24" rx="3" fill="#2563eb"/>
<text x="369.67" y="508" font-family="Arial" font-size="13">0.167</text>
</svg>