<svg xmlns="http://www.w3.org/2000/svg" width="980" height="404" viewBox="0 0 980 404">
<rect width="100%" height="100%" fill="white"/>
<text x="24" y="34" font-family="Arial" font-size="22" font-weight="700">Unauthorized Risky Action Rate Mean</text>
<text x="24" y="93" font-family="Arial" font-size="14">ablation_no_denied_actions</text>
<rect x="250" y="70" width="386.54" height="24" rx="3" fill="#2563eb"/>
<text x="644.54" y="88" font-family="Arial" font-size="13">0.577</text>
<text x="24" y="135" font-family="Arial" font-size="14">ablation_no_quorum</text>
<rect x="250" y="112" width="50.25" height="24" rx="3" fill="#2563eb"/>
<text x="308.25" y="130" font-family="Arial" font-size="13">0.075</text>
<text x="24" y="177" font-family="Arial" font-size="14">ablation_no_topic_scope</text>
<rect x="250" y="154" width="2.15" height="24" rx="3" fill="#2563eb"/>
<text x="260.15" y="172" font-family="Arial" font-size="13">0.003</text>
<text x="24" y="219" font-family="Arial" font-size="14">ambient_memory</text>
<rect x="250" y="196" width="342.73" height="24" rx="3" fill="#2563eb"/>
<text x="600.73" y="214" font-family="Arial" font-size="13">0.512</text>
<text x="24" y="261" font-family="Arial" font-size="14">intent_capsules</text>
<rect x="250" y="238" width="0.00" height="24" rx="3" fill="#2563eb"/>
<text x="258.00" y="256" font-family="Arial" font-size="13">0.000</text>
<text x="24" y="303" font-family="Arial" font-size="14">keyword_filter</text>
<rect x="250" y="280" width="306.22" height="24" rx="3" fill="#2563eb"/>
<text x="564.22" y="298" font-family="Arial" font-size="13">0.457</text>
<text x="24" y="345" font-family="Arial" font-size="14">provenance_only</text>
<rect x="250" y="322" width="90.62" height="24" rx="3" fill="#2563eb"/>
<text x="348.62" y="340" font-family="Arial" font-size="13">0.135</text>
</svg>