<svg xmlns="http://www.w3.org/2000/svg" width="980" height="572" viewBox="0 0 980 572">
<rect width="100%" height="100%" fill="white"/>
<text x="24" y="34" font-family="Arial" font-size="22" font-weight="700">Attack Success Rate Mean</text>
<text x="24" y="93" font-family="Arial" font-size="14">ablation_no_denied_actions</text>
<rect x="250" y="70" width="223.33" height="24" rx="3" fill="#2563eb"/>
<text x="481.33" y="88" font-family="Arial" font-size="13">0.333</text>
<text x="24" y="135" font-family="Arial" font-size="14">ablation_no_quorum</text>
<rect x="250" y="112" width="0.00" height="24" rx="3" fill="#2563eb"/>
<text x="258.00" y="130" font-family="Arial" font-size="13">0.000</text>
<text x="24" y="177" font-family="Arial" font-size="14">ablation_no_topic_scope</text>
<rect x="250" y="154" width="6.20" height="24" rx="3" fill="#2563eb"/>
<text x="264.20" y="172" font-family="Arial" font-size="13">0.009</text>
<text x="24" y="219" font-family="Arial" font-size="14">ambient_memory</text>
<rect x="250" y="196" width="151.99" height="24" rx="3" fill="#2563eb"/>
<text x="409.99" y="214" font-family="Arial" font-size="13">0.227</text>
<text x="24" y="261" font-family="Arial" font-size="14">counterfactual_memory</text>
<rect x="250" y="238" width="55.83" height="24" rx="3" fill="#2563eb"/>
<text x="313.83" y="256" font-family="Arial" font-size="13">0.083</text>
<text x="24" y="303" font-family="Arial" font-size="14">intent_capsules</text>
<rect x="250" y="280" width="0.00" height="24" rx="3" fill="#2563eb"/>
<text x="258.00" y="298" font-family="Arial" font-size="13">0.000</text>
<text x="24" y="345" font-family="Arial" font-size="14">keyword_filter</text>
<rect x="250" y="322" width="151.99" height="24" rx="3" fill="#2563eb"/>
<text x="409.99" y="340" font-family="Arial" font-size="13">0.227</text>
<text x="24" y="387" font-family="Arial" font-size="14">output_moderation</text>
<rect x="250" y="364" width="151.99" height="24" rx="3" fill="#2563eb"/>
<text x="409.99" y="382" font-family="Arial" font-size="13">0.227</text>
<text x="24" y="429" font-family="Arial" font-size="14">provenance_only</text>
<rect x="250" y="406" width="58.94" height="24" rx="3" fill="#2563eb"/>
<text x="316.94" y="424" font-family="Arial" font-size="13">0.088</text>
<text x="24" y="471" font-family="Arial" font-size="14">quarantine_only</text>
<rect x="250" y="448" width="151.99" height="24" rx="3" fill="#2563eb"/>
<text x="409.99" y="466" font-family="Arial" font-size="13">0.227</text>
<text x="24" y="513" font-family="Arial" font-size="14">trust_score_retrieval</text>
<rect x="250" y="490" width="58.94" height="24" rx="3" fill="#2563eb"/>
<text x="316.94" y="508" font-family="Arial" font-size="13">0.088</text>
</svg>