<svg xmlns="http://www.w3.org/2000/svg" width="980" height="572" viewBox="0 0 980 572">
<rect width="100%" height="100%" fill="white"/>
<text x="24" y="34" font-family="Arial" font-size="22" font-weight="700">Attack Success Rate Mean</text>
<text x="24" y="93" font-family="Arial" font-size="14">ablation_no_denied_actions</text>
<rect x="250" y="70" width="424.33" height="24" rx="3" fill="#2563eb"/>
<text x="682.33" y="88" font-family="Arial" font-size="13">0.633</text>
<text x="24" y="135" font-family="Arial" font-size="14">ablation_no_quorum</text>
<rect x="250" y="112" width="52.11" height="24" rx="3" fill="#2563eb"/>
<text x="310.11" y="130" font-family="Arial" font-size="13">0.078</text>
<text x="24" y="177" font-family="Arial" font-size="14">ablation_no_topic_scope</text>
<rect x="250" y="154" width="2.23" height="24" rx="3" fill="#2563eb"/>
<text x="260.23" y="172" font-family="Arial" font-size="13">0.003</text>
<text x="24" y="219" font-family="Arial" font-size="14">ambient_memory</text>
<rect x="250" y="196" width="348.40" height="24" rx="3" fill="#2563eb"/>
<text x="606.40" y="214" font-family="Arial" font-size="13">0.520</text>
<text x="24" y="261" font-family="Arial" font-size="14">counterfactual_memory</text>
<rect x="250" y="238" width="166.01" height="24" rx="3" fill="#2563eb"/>
<text x="424.01" y="256" font-family="Arial" font-size="13">0.248</text>
<text x="24" y="303" font-family="Arial" font-size="14">intent_capsules</text>
<rect x="250" y="280" width="0.00" height="24" rx="3" fill="#2563eb"/>
<text x="258.00" y="298" font-family="Arial" font-size="13">0.000</text>
<text x="24" y="345" font-family="Arial" font-size="14">keyword_filter</text>
<rect x="250" y="322" width="326.07" height="24" rx="3" fill="#2563eb"/>
<text x="584.07" y="340" font-family="Arial" font-size="13">0.487</text>
<text x="24" y="387" font-family="Arial" font-size="14">output_moderation</text>
<rect x="250" y="364" width="326.07" height="24" rx="3" fill="#2563eb"/>
<text x="584.07" y="382" font-family="Arial" font-size="13">0.487</text>
<text x="24" y="429" font-family="Arial" font-size="14">provenance_only</text>
<rect x="250" y="406" width="100.13" height="24" rx="3" fill="#2563eb"/>
<text x="358.13" y="424" font-family="Arial" font-size="13">0.149</text>
<text x="24" y="471" font-family="Arial" font-size="14">quarantine_only</text>
<rect x="250" y="448" width="326.07" height="24" rx="3" fill="#2563eb"/>
<text x="584.07" y="466" font-family="Arial" font-size="13">0.487</text>
<text x="24" y="513" font-family="Arial" font-size="14">trust_score_retrieval</text>
<rect x="250" y="490" width="100.13" height="24" rx="3" fill="#2563eb"/>
<text x="358.13" y="508" font-family="Arial" font-size="13">0.149</text>
</svg>