<svg xmlns="http://www.w3.org/2000/svg" width="980" height="572" viewBox="0 0 980 572">
<rect width="100%" height="100%" fill="white"/>
<text x="24" y="34" font-family="Arial" font-size="22" font-weight="700">Benign Accuracy Mean</text>
<text x="24" y="93" font-family="Arial" font-size="14">ablation_no_denied_actions</text>
<rect x="250" y="70" width="558.33" height="24" rx="3" fill="#2563eb"/>
<text x="816.33" y="88" font-family="Arial" font-size="13">0.833</text>
<text x="24" y="135" font-family="Arial" font-size="14">ablation_no_quorum</text>
<rect x="250" y="112" width="670.00" height="24" rx="3" fill="#2563eb"/>
<text x="928.00" y="130" font-family="Arial" font-size="13">1.000</text>
<text x="24" y="177" font-family="Arial" font-size="14">ablation_no_topic_scope</text>
<rect x="250" y="154" width="522.97" height="24" rx="3" fill="#2563eb"/>
<text x="780.97" y="172" font-family="Arial" font-size="13">0.781</text>
<text x="24" y="219" font-family="Arial" font-size="14">ambient_memory</text>
<rect x="250" y="196" width="655.11" height="24" rx="3" fill="#2563eb"/>
<text x="913.11" y="214" font-family="Arial" font-size="13">0.978</text>
<text x="24" y="261" font-family="Arial" font-size="14">counterfactual_memory</text>
<rect x="250" y="238" width="375.94" height="24" rx="3" fill="#2563eb"/>
<text x="633.94" y="256" font-family="Arial" font-size="13">0.561</text>
<text x="24" y="303" font-family="Arial" font-size="14">intent_capsules</text>
<rect x="250" y="280" width="670.00" height="24" rx="3" fill="#2563eb"/>
<text x="928.00" y="298" font-family="Arial" font-size="13">1.000</text>
<text x="24" y="345" font-family="Arial" font-size="14">keyword_filter</text>
<rect x="250" y="322" width="655.11" height="24" rx="3" fill="#2563eb"/>
<text x="913.11" y="340" font-family="Arial" font-size="13">0.978</text>
<text x="24" y="387" font-family="Arial" font-size="14">output_moderation</text>
<rect x="250" y="364" width="655.11" height="24" rx="3" fill="#2563eb"/>
<text x="913.11" y="382" font-family="Arial" font-size="13">0.978</text>
<text x="24" y="429" font-family="Arial" font-size="14">provenance_only</text>
<rect x="250" y="406" width="649.53" height="24" rx="3" fill="#2563eb"/>
<text x="907.53" y="424" font-family="Arial" font-size="13">0.969</text>
<text x="24" y="471" font-family="Arial" font-size="14">quarantine_only</text>
<rect x="250" y="448" width="655.11" height="24" rx="3" fill="#2563eb"/>
<text x="913.11" y="466" font-family="Arial" font-size="13">0.978</text>
<text x="24" y="513" font-family="Arial" font-size="14">trust_score_retrieval</text>
<rect x="250" y="490" width="649.53" height="24" rx="3" fill="#2563eb"/>
<text x="907.53" y="508" font-family="Arial" font-size="13">0.969</text>
</svg>