<svg xmlns="http://www.w3.org/2000/svg" width="980" height="404" viewBox="0 0 980 404">
<rect width="100%" height="100%" fill="white"/>
<text x="24" y="34" font-family="Arial" font-size="22" font-weight="700">Unauthorized Risky Action Rate Mean</text>
<text x="24" y="93" font-family="Arial" font-size="14">ablation_no_denied_actions</text>
<rect x="250" y="70" width="167.50" height="24" rx="3" fill="#2563eb"/>
<text x="425.50" y="88" font-family="Arial" font-size="13">0.250</text>
<text x="24" y="135" font-family="Arial" font-size="14">ablation_no_quorum</text>
<rect x="250" y="112" width="0.00" height="24" rx="3" fill="#2563eb"/>
<text x="258.00" y="130" font-family="Arial" font-size="13">0.000</text>
<text x="24" y="177" font-family="Arial" font-size="14">ablation_no_topic_scope</text>
<rect x="250" y="154" width="6.51" height="24" rx="3" fill="#2563eb"/>
<text x="264.51" y="172" font-family="Arial" font-size="13">0.010</text>
<text x="24" y="219" font-family="Arial" font-size="14">ambient_memory</text>
<rect x="250" y="196" width="136.79" height="24" rx="3" fill="#2563eb"/>
<text x="394.79" y="214" font-family="Arial" font-size="13">0.204</text>
<text x="24" y="261" font-family="Arial" font-size="14">intent_capsules</text>
<rect x="250" y="238" width="0.00" height="24" rx="3" fill="#2563eb"/>
<text x="258.00" y="256" font-family="Arial" font-size="13">0.000</text>
<text x="24" y="303" font-family="Arial" font-size="14">keyword_filter</text>
<rect x="250" y="280" width="110.74" height="24" rx="3" fill="#2563eb"/>
<text x="368.74" y="298" font-family="Arial" font-size="13">0.165</text>
<text x="24" y="345" font-family="Arial" font-size="14">provenance_only</text>
<rect x="250" y="322" width="22.33" height="24" rx="3" fill="#2563eb"/>
<text x="280.33" y="340" font-family="Arial" font-size="13">0.033</text>
</svg>