<svg xmlns="http://www.w3.org/2000/svg" width="980" height="782" viewBox="0 0 980 782">
<rect width="100%" height="100%" fill="white"/>
<text x="24" y="34" font-family="Arial" font-size="22" font-weight="700">Sensitivity Attack Success Rate</text>
<text x="24" y="93" font-family="Arial" font-size="14">m0.35_t0.08</text>
<rect x="250" y="70" width="0.00" height="24" rx="3" fill="#2563eb"/>
<text x="258.00" y="88" font-family="Arial" font-size="13">0.000</text>
<text x="24" y="135" font-family="Arial" font-size="14">m0.35_t0.12</text>
<rect x="250" y="112" width="0.00" height="24" rx="3" fill="#2563eb"/>
<text x="258.00" y="130" font-family="Arial" font-size="13">0.000</text>
<text x="24" y="177" font-family="Arial" font-size="14">m0.35_t0.2</text>
<rect x="250" y="154" width="0.00" height="24" rx="3" fill="#2563eb"/>
<text x="258.00" y="172" font-family="Arial" font-size="13">0.000</text>
<text x="24" y="219" font-family="Arial" font-size="14">m0.35_t0.3</text>
<rect x="250" y="196" width="0.00" height="24" rx="3" fill="#2563eb"/>
<text x="258.00" y="214" font-family="Arial" font-size="13">0.000</text>
<text x="24" y="261" font-family="Arial" font-size="14">m0.5_t0.08</text>
<rect x="250" y="238" width="0.00" height="24" rx="3" fill="#2563eb"/>
<text x="258.00" y="256" font-family="Arial" font-size="13">0.000</text>
<text x="24" y="303" font-family="Arial" font-size="14">m0.5_t0.12</text>
<rect x="250" y="280" width="0.00" height="24" rx="3" fill="#2563eb"/>
<text x="258.00" y="298" font-family="Arial" font-size="13">0.000</text>
<text x="24" y="345" font-family="Arial" font-size="14">m0.5_t0.2</text>
<rect x="250" y="322" width="0.00" height="24" rx="3" fill="#2563eb"/>
<text x="258.00" y="340" font-family="Arial" font-size="13">0.000</text>
<text x="24" y="387" font-family="Arial" font-size="14">m0.5_t0.3</text>
<rect x="250" y="364" width="0.00" height="24" rx="3" fill="#2563eb"/>
<text x="258.00" y="382" font-family="Arial" font-size="13">0.000</text>
<text x="24" y="429" font-family="Arial" font-size="14">m0.65_t0.08</text>
<rect x="250" y="406" width="0.00" height="24" rx="3" fill="#2563eb"/>
<text x="258.00" y="424" font-family="Arial" font-size="13">0.000</text>
<text x="24" y="471" font-family="Arial" font-size="14">m0.65_t0.12</text>
<rect x="250" y="448" width="0.00" height="24" rx="3" fill="#2563eb"/>
<text x="258.00" y="466" font-family="Arial" font-size="13">0.000</text>
<text x="24" y="513" font-family="Arial" font-size="14">m0.65_t0.2</text>
<rect x="250" y="490" width="0.00" height="24" rx="3" fill="#2563eb"/>
<text x="258.00" y="508" font-family="Arial" font-size="13">0.000</text>
<text x="24" y="555" font-family="Arial" font-size="14">m0.65_t0.3</text>
<rect x="250" y="532" width="0.00" height="24" rx="3" fill="#2563eb"/>
<text x="258.00" y="550" font-family="Arial" font-size="13">0.000</text>
<text x="24" y="597" font-family="Arial" font-size="14">m0.8_t0.08</text>
<rect x="250" y="574" width="0.00" height="24" rx="3" fill="#2563eb"/>
<text x="258.00" y="592" font-family="Arial" font-size="13">0.000</text>
<text x="24" y="639" font-family="Arial" font-size="14">m0.8_t0.12</text>
<rect x="250" y="616" width="0.00" height="24" rx="3" fill="#2563eb"/>
<text x="258.00" y="634" font-family="Arial" font-size="13">0.000</text>
<text x="24" y="681" font-family="Arial" font-size="14">m0.8_t0.2</text>
<rect x="250" y="658" width="0.00" height="24" rx="3" fill="#2563eb"/>
<text x="258.00" y="676" font-family="Arial" font-size="13">0.000</text>
<text x="24" y="723" font-family="Arial" font-size="14">m0.8_t0.3</text>
<rect x="250" y="700" width="0.00" height="24" rx="3" fill="#2563eb"/>
<text x="258.00" y="718" font-family="Arial" font-size="13">0.000</text>
</svg>